<svg width="735" height="175" viewBox="0 0 735 175" fill="none" xmlns="http://www.w3.org/2000/svg">
<path d="M190.884 151.993H184.738L202.512 103.537H208.563L226.337 151.993H220.192L205.727 111.203H205.349L190.884 151.993ZM197.596 133.065H213.48L215.326 138.27H195.75L197.596 133.065Z" fill="black"/>
<path d="M233.877 151.993V103.537H239.739V146.788H262.24V151.993H233.877Z" fill="black"/>
<path d="M271.317 151.993V103.537H277.178V127.576H277.746L299.491 103.537H307.149L286.822 125.399L307.149 151.993H300.058L283.229 129.469L277.178 136.283V151.993H271.317Z" fill="black"/>
<path d="M310.576 103.537H317.288L330.714 126.156H331.281L344.706 103.537H351.419L333.928 132.024V151.993H328.066V132.024L310.576 103.537Z" fill="black"/>
<path d="M358.793 152.166V103.71H375.149C378.931 103.71 382.035 104.356 384.462 105.65C386.888 106.928 388.685 108.686 389.851 110.926C391.017 113.166 391.6 115.713 391.6 118.568C391.6 121.423 391.017 123.955 389.851 126.163C388.685 128.372 386.896 130.107 384.485 131.369C382.074 132.615 378.994 133.238 375.244 133.238H364.655V127.938H375.055C377.639 127.938 379.719 127.559 381.295 126.802C382.886 126.045 384.036 124.972 384.745 123.584C385.47 122.18 385.833 120.508 385.833 118.568C385.833 116.628 385.47 114.933 384.745 113.481C384.021 112.03 382.862 110.91 381.271 110.122C379.679 109.317 377.576 108.915 374.96 108.915H364.655V152.166H358.793ZM383.148 131.97L393.491 152.166H386.684L377.7 133.141C379.827 132.683 381.02 132.427 383.148 131.97Z" fill="black"/>
<path d="M407.436 103.537V151.993H401.574V103.537H407.436Z" fill="black"/>
<path d="M419.189 151.993V103.537H448.403V108.742H425.051V125.115H446.89V130.321H425.051V146.788H448.781V151.993H419.189Z" fill="black"/>
<path d="M475.04 108.742V103.537H511.345V108.742H496.124V151.993H490.262V108.742H475.04Z" fill="black"/>
<path d="M520.392 151.993V103.537H526.254V125.115H552.064V103.537H557.926V151.993H552.064V130.321H526.254V151.993H520.392Z" fill="black"/>
<path d="M569.661 151.993V103.537H586.017C589.799 103.537 592.903 104.184 595.329 105.477C597.756 106.755 599.552 108.514 600.719 110.754C601.885 112.993 602.468 115.541 602.468 118.396C602.468 121.251 601.885 123.782 600.719 125.991C599.552 128.199 597.764 129.934 595.353 131.196C592.942 132.442 589.862 133.065 586.111 133.065H575.523V127.765H585.922C588.507 127.765 590.587 127.387 592.162 126.63C593.754 125.872 594.904 124.8 595.613 123.412C596.338 122.008 596.7 120.336 596.7 118.396C596.7 116.456 596.338 114.76 595.613 113.309C594.888 111.858 593.73 110.738 592.139 109.949C590.547 109.145 588.444 108.742 585.828 108.742H575.523V151.993H569.661ZM594.015 131.797L604.358 151.993H597.551L588.629 133.03L594.015 131.797Z" fill="black"/>
<path d="M612.235 151.993V103.537H641.449V108.742H618.097V125.115H639.936V130.321H618.097V146.788H641.827V151.993H612.235Z" fill="black"/>
<path d="M654 151.993H647.854L665.629 103.537H671.679L689.454 151.993H683.308L668.843 111.203H668.465L654 151.993ZM660.712 133.065H676.596L678.442 138.27H658.866L660.712 133.065Z" fill="black"/>
<path d="M711.931 151.993H696.993V103.537H712.593C717.289 103.537 721.307 104.507 724.647 106.447C727.988 108.372 730.549 111.14 732.329 114.752C734.11 118.348 735 122.655 735 127.671C735 132.718 734.102 137.064 732.306 140.707C730.509 144.335 727.893 147.127 724.458 149.083C721.023 151.023 716.848 151.993 711.931 151.993ZM702.855 146.788H711.553C715.555 146.788 718.872 146.015 721.504 144.469C724.135 142.924 726.097 140.723 727.389 137.868C728.681 135.013 729.327 131.614 729.327 127.671C729.327 123.759 728.689 120.391 727.413 117.568C726.137 114.728 724.23 112.552 721.693 111.037C719.156 109.507 715.997 108.742 712.215 108.742H702.855V146.788Z" fill="black"/>
<path d="M461.581 174.896L455.563 8.08865C455.03 3.50078 458.693 -0.145083 462.272 0.00444C465.684 0.146487 468.933 3.73753 468.389 8.08865C466.12 63.6912 463.85 119.294 461.581 174.896Z" fill="black"/>
<path d="M459.865 7.86438C459.865 6.70558 460.82 5.74863 461.983 5.74863C463.142 5.74863 464.1 6.70308 464.1 7.86438C463.925 10.6206 462.828 12.4921 461.983 12.4921C461.137 12.4921 460.04 10.6206 459.865 7.86438Z" fill="white"/>
<path d="M101.079 151.768C64.7214 70.4352 73.8741 88.7918 45.5813 60.6725C13.2558 39.5257 15.5837 24.1885 10.6987 0.715574C8.60601 24.6525 5.81376 44.8653 42.3246 69.0372C55.263 80.6268 63.4399 89.4144 69.0656 101.492C78.0831 120.835 86.8831 140.965 101.079 175C114.57 141.077 131.524 104.323 135.886 97.1506C149.676 74.4707 162.862 67.0987 175.112 57.0658C194.029 37.9691 191.66 32.3887 192.089 0.715574C186.74 27.2077 189.297 38.8267 148.136 67.6392C140.089 74.923 126.51 87.2704 100.674 153.154" fill="black"/>
<path d="M137.438 101.11C147.284 94.5249 155.655 89.5672 167.982 86.1602C184.724 78.4122 197.286 75.0053 202.088 50.992C199.608 54.863 194.347 69.6951 166.894 77.9482C154.955 81.6665 140.847 90.8829 137.438 101.11Z" fill="black"/>
<path d="M64.4922 100.411C58.3669 95.688 55.7333 93.5145 34.4182 86.1602C22.0147 81.7429 4.80855 75.0053 0 50.992C2.48069 54.863 7.7654 69.325 35.5057 77.9482C47.4447 81.6665 61.0886 90.1898 64.4981 100.411H64.4922Z" fill="black"/>
<path d="M66.82 107.695C55.5805 102.89 51.7478 103.201 42.1718 101.65C28.4516 98.6309 19.6163 98.1668 8.97047 78.6472C14.8077 84.6917 26.2824 90.1898 42.8713 93.9845C52.6413 96.246 60.1127 100.417 66.8259 107.695H66.82Z" fill="black"/>
<path d="M135.797 107.724C147.037 102.919 150.87 103.23 160.446 101.68C174.166 98.6602 183.001 98.1962 193.647 78.6766C187.81 84.721 176.335 90.2192 159.746 94.0138C149.976 96.2754 142.505 100.446 135.792 107.724H135.797Z" fill="black"/>
<path d="M131.624 114.744C140.324 110.508 147.572 109.222 152.71 108.858C158.529 108.446 162.562 109.151 169.451 107.695C175.054 106.508 179.439 104.552 182.319 103.048C179.274 106.073 174.007 110.385 166.406 112.57C164.284 113.181 162.286 113.539 160.463 113.739C159.147 113.792 157.671 113.845 156.354 113.892C148.089 114.197 139.848 114.485 131.624 114.744Z" fill="black"/>
<path d="M70.5822 115.266C61.8822 111.031 54.6341 109.745 49.4963 109.38C43.6767 108.969 39.6441 109.674 32.7546 108.217C27.1524 107.031 22.7671 105.075 19.8867 103.571C22.9317 106.596 28.1988 110.908 35.7996 113.093C37.9217 113.704 39.9204 114.062 41.7427 114.262C43.0594 114.315 44.5349 114.368 45.8517 114.415C54.1168 114.72 62.3583 115.008 70.5822 115.266Z" fill="black"/>
<path d="M70.5822 117.722C68.031 119.314 64.9272 120.958 61.2826 122.368C53.7111 125.293 46.851 126.01 41.9778 126.086C45.2403 127.285 50.1665 128.518 55.9332 127.714C57.1912 127.537 58.361 127.285 59.4367 126.985C60.7065 126.797 63.34 126.233 65.9324 124.224C68.9715 121.875 70.1707 118.92 70.5822 117.716V117.722Z" fill="black"/>
<path d="M130.93 117.722C133.481 119.314 136.585 120.958 140.23 122.368C147.801 125.293 154.661 126.01 159.535 126.086C156.272 127.285 151.346 128.518 145.579 127.714C144.321 127.537 143.151 127.285 142.076 126.985C140.806 126.797 138.172 126.233 135.58 124.224C132.541 121.875 131.342 118.92 130.93 117.716V117.722Z" fill="black"/>
</svg>
